<svg xmlns="http://www.w3.org/2000/svg" width="800" height="800" viewBox="0 0 800 800"><rect width="100%" height="100%" fill="#DDDDDD"/><path fill="#999999" d="M163.02 359.46h49.45v5.3q0 2.38-.5 3.84-.49 1.46-.99 2.45l-27.12 55.83q-.84 1.73-2.38 2.95-1.53 1.21-4.11 1.21h-8.86l27.67-54.7q.94-1.68 1.86-3.09t2.05-2.7h-34.25q-1.14 0-1.98-.84t-.84-1.98zm89.84 7.43-7.87 4.5q-.89.55-1.76.92-.86.37-1.8.52 1.93.29 3.56 1.38l7.87 4.61-2.87 4.95-7.87-4.61q-.89-.54-1.66-1.13-.77-.6-1.31-1.29.64 1.63.64 3.76v9.11h-5.84v-9.06q0-.99.13-1.93.12-.94.42-1.78-.55.69-1.29 1.23-.74.55-1.58 1.09l-7.82 4.56-2.93-4.95 7.87-4.56q1.89-1.09 3.57-1.38-1.73-.3-3.57-1.44l-7.87-4.6 2.88-4.95 7.87 4.65q.89.55 1.63 1.12.74.56 1.34 1.26-.65-1.64-.65-3.71V356h5.84v9.06q0 1.04-.12 1.98t-.47 1.78q.59-.69 1.34-1.24.74-.54 1.58-1.09l7.82-4.55zM272.12 400q0 10.2 2.47 20.05 2.48 9.85 7.08 18.51.5.99.57 1.76t-.12 1.34q-.2.57-.62.99t-.92.72l-5.44 3.31q-3.67-5.64-6.24-11.33-2.57-5.7-4.21-11.49-1.63-5.79-2.4-11.73t-.77-12.13q0-6.18.77-12.15.77-5.96 2.4-11.76 1.64-5.79 4.21-11.45 2.57-5.67 6.24-11.32l5.44 3.27q.5.3.92.72t.62.99q.19.57.12 1.34-.07.76-.57 1.8-4.6 8.62-7.08 18.49-2.47 9.88-2.47 20.07m67.91-4.75q0 9.36-2 16.26-2.01 6.91-5.55 11.41-3.54 4.51-8.36 6.71-4.83 2.2-10.42 2.2-5.6 0-10.37-2.2-4.78-2.2-8.29-6.71-3.52-4.5-5.5-11.41-1.98-6.9-1.98-16.26 0-9.4 1.98-16.28t5.5-11.39q3.51-4.5 8.29-6.71 4.77-2.2 10.37-2.2 5.59 0 10.42 2.2 4.82 2.21 8.36 6.71 3.54 4.51 5.55 11.39 2 6.88 2 16.28m-12.62 0q0-7.77-1.14-12.87t-3.04-8.12q-1.91-3.02-4.39-4.23-2.47-1.21-5.14-1.21-2.63 0-5.08 1.21t-4.33 4.23-2.99 8.12q-1.12 5.1-1.12 12.87t1.12 12.87q1.11 5.1 2.99 8.12t4.33 4.23 5.08 1.21q2.67 0 5.14-1.21 2.48-1.21 4.39-4.23 1.9-3.02 3.04-8.12t1.14-12.87m19.35 29.06q0-1.54.57-2.92.57-1.39 1.56-2.38t2.38-1.58q1.38-.6 2.97-.6 1.58 0 2.94.6 1.36.59 2.38 1.58 1.01.99 1.61 2.38.59 1.38.59 2.92 0 1.58-.59 2.94-.6 1.36-1.61 2.35-1.02.99-2.38 1.56t-2.94.57q-1.59 0-2.97-.57-1.39-.57-2.38-1.56t-1.56-2.35-.57-2.94m47.97-2.03q3.02 0 5.29-.87 2.28-.86 3.84-2.4 1.56-1.53 2.35-3.66t.79-4.61q0-5.89-3.26-8.91-3.27-3.01-9.01-3.01t-9.01 3.01q-3.27 3.02-3.27 8.91 0 2.48.79 4.61.8 2.13 2.36 3.66 1.55 1.54 3.83 2.4 2.28.87 5.3.87m0-54.4q-2.72 0-4.7.84t-3.3 2.25q-1.31 1.41-1.93 3.24-.62 1.84-.62 3.86 0 2.13.52 4.14.52 2 1.76 3.56t3.27 2.5 5 .94 5-.94 3.26-2.5q1.24-1.56 1.76-3.56.52-2.01.52-4.14 0-2.02-.64-3.86-.65-1.83-1.93-3.24-1.29-1.41-3.27-2.25t-4.7-.84m12.08 25.84q6.53 2.13 9.65 6.51t3.12 10.71q0 4.75-1.81 8.62-1.81 3.86-5.07 6.58-3.27 2.72-7.85 4.21-4.58 1.48-10.12 1.48-5.55 0-10.12-1.48-4.58-1.49-7.85-4.21t-5.07-6.58q-1.81-3.87-1.81-8.62 0-6.33 3.12-10.71t9.65-6.51q-5.2-2.18-7.8-6.19-2.59-4.01-2.59-9.65 0-4.06 1.65-7.58 1.66-3.51 4.63-6.11t7.11-4.06q4.13-1.46 9.08-1.46t9.08 1.46 7.1 4.06 4.63 6.11q1.66 3.52 1.66 7.58 0 5.64-2.6 9.65t-7.79 6.19m50.63 10.59 17.38 26.73h-11.78q-1.34 0-2.15-.69-.82-.7-1.37-1.59l-10.74-17.67q-.25.84-.57 1.59-.32.74-.71 1.38l-9.51 14.7q-.54.84-1.34 1.56-.79.72-1.98.72h-10.93l17.42-26.19-16.73-24.6h11.78q1.34 0 1.98.37.64.38 1.14 1.22l10.64 16.93q.54-1.69 1.53-3.32l8.57-13.37q1.09-1.83 2.82-1.83h11.24zm72.62-9.06q0 9.36-2 16.26-2.01 6.91-5.55 11.41-3.54 4.51-8.36 6.71-4.83 2.2-10.42 2.2-5.6 0-10.37-2.2-4.78-2.2-8.29-6.71-3.52-4.5-5.5-11.41-1.98-6.9-1.98-16.26 0-9.4 1.98-16.28t5.5-11.39q3.51-4.5 8.29-6.71 4.77-2.2 10.37-2.2 5.59 0 10.42 2.2 4.82 2.21 8.36 6.71 3.54 4.51 5.55 11.39 2 6.88 2 16.28m-12.62 0q0-7.77-1.14-12.87t-3.04-8.12q-1.91-3.02-4.38-4.23-2.48-1.21-5.15-1.21-2.63 0-5.08 1.21t-4.33 4.23-2.99 8.12q-1.12 5.1-1.12 12.87t1.12 12.87q1.11 5.1 2.99 8.12t4.33 4.23 5.08 1.21q2.67 0 5.15-1.21 2.47-1.21 4.38-4.23 1.9-3.02 3.04-8.12t1.14-12.87m19.35 29.06q0-1.54.57-2.92.57-1.39 1.56-2.38t2.38-1.58q1.38-.6 2.97-.6 1.58 0 2.94.6 1.36.59 2.38 1.58 1.01.99 1.61 2.38.59 1.38.59 2.92 0 1.58-.59 2.94-.6 1.36-1.61 2.35-1.02.99-2.38 1.56t-2.94.57q-1.59 0-2.97-.57-1.39-.57-2.38-1.56t-1.56-2.35-.57-2.94m47.97-2.03q3.02 0 5.3-.87 2.27-.86 3.83-2.4 1.56-1.53 2.35-3.66t.79-4.61q0-5.89-3.26-8.91-3.27-3.01-9.01-3.01t-9.01 3.01q-3.27 3.02-3.27 8.91 0 2.48.8 4.61.79 2.13 2.35 3.66 1.56 1.54 3.83 2.4 2.28.87 5.3.87m0-54.4q-2.72 0-4.7.84t-3.3 2.25q-1.31 1.41-1.93 3.24-.61 1.84-.61 3.86 0 2.13.52 4.14.51 2 1.75 3.56t3.27 2.5 5 .94 5-.94 3.27-2.5q1.23-1.56 1.75-3.56.52-2.01.52-4.14 0-2.02-.64-3.86-.64-1.83-1.93-3.24t-3.27-2.25-4.7-.84m12.08 25.84q6.53 2.13 9.65 6.51t3.12 10.71q0 4.75-1.81 8.62-1.81 3.86-5.07 6.58-3.27 2.72-7.85 4.21-4.58 1.48-10.12 1.48t-10.12-1.48q-4.58-1.49-7.85-4.21t-5.07-6.58q-1.81-3.87-1.81-8.62 0-6.33 3.12-10.71t9.65-6.51q-5.2-2.18-7.8-6.19-2.59-4.01-2.59-9.65 0-4.06 1.65-7.58 1.66-3.51 4.63-6.11t7.11-4.06q4.13-1.46 9.08-1.46t9.08 1.46q4.14 1.46 7.11 4.06t4.62 6.11q1.66 3.52 1.66 7.58 0 5.64-2.6 9.65t-7.79 6.19m29.55 6.28q0-10.19-2.45-20.07-2.45-9.87-7.06-18.49-.54-1.04-.61-1.8-.08-.77.12-1.34t.62-.99.96-.72l5.45-3.27q3.66 5.65 6.24 11.32 2.57 5.66 4.2 11.45 1.64 5.8 2.38 11.76.74 5.97.74 12.15 0 6.19-.74 12.13t-2.38 11.73q-1.63 5.79-4.2 11.49-2.58 5.69-6.24 11.33l-5.45-3.31q-.54-.3-.96-.72t-.62-.99-.12-1.34q.07-.77.61-1.76 4.61-8.66 7.06-18.51t2.45-20.05"/></svg>